<svg xmlns="http://www.w3.org/2000/svg" viewBox="0 0 350 54.33"><defs><style>.cls-1{fill:#fea135;}.cls-1,.cls-2,.cls-3,.cls-4,.cls-5,.cls-6{fill-rule:evenodd;}.cls-2{fill:#feb719;}.cls-10,.cls-3{fill:#fe8755;}.cls-4{fill:#fe7868;}.cls-5,.cls-8{fill:#033;}.cls-6,.cls-9{fill:#e84f4f;}.cls-7{fill:#fff;}</style></defs><g id="Layer_2" data-name="Layer 2"><g id="Layer_1-2" data-name="Layer 1"><path class="cls-1" d="M62.23,22.59A38,38,0,0,1,65.42,25H61.33a21.81,21.81,0,0,0,.9-2.45ZM60.92,26l3.19.19h0l2.9.35a36.4,36.4,0,0,1,8.87,13.59l-.62.41-26,.9c4.31-4.67,9-9.77,11.68-15.44ZM48.78,41.89H73.66A10.57,10.57,0,0,0,71,47.31a5.57,5.57,0,0,0-4.68,1.19,7.34,7.34,0,0,0-12.73,2.38,5,5,0,0,0-5.91,1,7.15,7.15,0,0,0-3.29-5l.69-.8c1.15-1.35,2.42-2.73,3.74-4.16ZM37.71,46.36a7.16,7.16,0,0,0-4.3,6.23,5.1,5.1,0,0,0-2.68-.76,5,5,0,0,0-2.2.5,6.08,6.08,0,0,0-11.31-.5,5.09,5.09,0,0,0-4.08-2,4.65,4.65,0,0,0-.75.06A8.72,8.72,0,0,0,6.6,42.79,36.12,36.12,0,0,1,11,33l14.52-.51c3.68,4.95,8.32,9.45,11.88,13.6l.27.31ZM25,31.69H11.89a36.76,36.76,0,0,1,8.52-8.59A32.62,32.62,0,0,0,25,31.69Z"/><path class="cls-2" d="M71,47.31a5.57,5.57,0,0,0-4.68,1.19,7.34,7.34,0,0,0-12.73,2.38,5,5,0,0,0-5.91,1,7.17,7.17,0,0,0-2.77-4.66c5.77-3.42,15.59-7.56,26.35-1-.1.37-.19.75-.26,1.14ZM6.6,42.79l.09-.34c3.83-1.57,9.18-2.38,14.12,1.7,4.75,3.93,9,5.87,13.08,6.18a7.12,7.12,0,0,0-.48,2.26,5.1,5.1,0,0,0-2.68-.76,5,5,0,0,0-2.2.5,6.08,6.08,0,0,0-11.31-.5,5.09,5.09,0,0,0-4.08-2,4.65,4.65,0,0,0-.75.06A8.7,8.7,0,0,0,6.6,42.79Z"/><path class="cls-3" d="M62.23,22.59A38,38,0,0,1,65.42,25H61.33a21.81,21.81,0,0,0,.9-2.45ZM60.92,26l3.19.19h0l2.9.35a36.53,36.53,0,0,1,8.8,13.41,10.84,10.84,0,0,1-1.17.61l-8.26.29a22,22,0,0,1-6.22-3.14,15.92,15.92,0,0,0-5.38-2.49A44.58,44.58,0,0,0,60.92,26ZM31.85,39.88C23.93,42.08,14.53,36.74,10.4,34c.2-.35.42-.69.64-1l14.52-.51a93.46,93.46,0,0,0,6.29,7.43ZM25,31.69H11.89a36.76,36.76,0,0,1,8.52-8.59A32.62,32.62,0,0,0,25,31.69Z"/><path class="cls-4" d="M62.23,22.59A38,38,0,0,1,65.42,25H61.33a21.81,21.81,0,0,0,.9-2.45ZM60.92,26l3.19.19h0l2.9.35.44.43c-2.19,4.73-5.93,5.93-10.44,5.42A38,38,0,0,0,60.92,26Zm-39.7-.74a25,25,0,0,0-7,3.56,36.86,36.86,0,0,1,6.23-5.67C20.64,23.81,20.92,24.52,21.22,25.21Z"/><path class="cls-5" d="M62.79,13.12A41.3,41.3,0,0,1,82,54.33h-.63c0-.4,0-.81,0-1.21A40.16,40.16,0,0,0,63,19.3a17.82,17.82,0,0,0,.17-2.43,22.16,22.16,0,0,0-.33-3.75ZM19.53,19.3A40.15,40.15,0,0,0,1.05,53.12c0,.4,0,.81,0,1.21H.44A41.31,41.31,0,0,1,19.68,13.12a22.16,22.16,0,0,0-.32,3.75A17.82,17.82,0,0,0,19.53,19.3Z"/><path class="cls-6" d="M41.24,0A16.87,16.87,0,0,1,58.11,16.87c0,9.47-11.22,19.33-16.87,25.93-5.66-6.6-16.87-16.46-16.87-25.93A16.87,16.87,0,0,1,41.24,0Z"/><circle class="cls-7" cx="41.24" cy="16.87" r="6.11" transform="translate(-2.23 7.07) rotate(-9.55)"/><path class="cls-8" d="M110.28,5v5.32h-7.51V32.68H96V10.36H88.62V5Z"/><path class="cls-8" d="M125.88,32.68l-6-10.44h-1.52V32.68h-6.69V5H123.1a12.39,12.39,0,0,1,5.55,1.13,7.87,7.87,0,0,1,3.4,3.11,8.88,8.88,0,0,1,1.14,4.52,8.07,8.07,0,0,1-1.66,5.12,8.49,8.49,0,0,1-4.83,2.89l6.57,10.87Zm-7.51-15h4.14a4.18,4.18,0,0,0,2.94-.88,3.42,3.42,0,0,0,.94-2.6,3.42,3.42,0,0,0-1-2.58,4,4,0,0,0-2.92-.94h-4.14Z"/><path class="cls-8" d="M153.09,27.64H142.73l-1.72,5h-7L144.1,5.23h7.7l10.13,27.45h-7.12Zm-1.72-5.08-3.44-10.17-3.48,10.17Z"/><path class="cls-8" d="M164.54,5l6.77,20.8L178.07,5h7.16l-9.62,27.64H167L157.39,5Z"/><path class="cls-8" d="M193.21,10.36v5.78h9.34v5.05h-9.34v6.14h10.51v5.35h-17.2V5h17.2v5.32Z"/><path class="cls-8" d="M214.82,27.56h8.92v5.12h-15.6V5h6.68Z"/><path class="cls-9" d="M244.25,20.84a6.65,6.65,0,0,1,1.58,4.41,6.86,6.86,0,0,1-2.29,5.4q-2.28,2-6.63,2H226.67V5.12h10.09q4.14,0,6.29,1.84a6.25,6.25,0,0,1,2.15,5,6.32,6.32,0,0,1-1.42,4.3,6.5,6.5,0,0,1-3.66,2.11A7.25,7.25,0,0,1,244.25,20.84Zm-14-3.64h5.94a5.91,5.91,0,0,0,4-1.21,4.29,4.29,0,0,0,1.39-3.4,4.23,4.23,0,0,0-1.37-3.33A6.15,6.15,0,0,0,236,8.05h-5.79Zm10.38,11.22a4.47,4.47,0,0,0,1.54-3.64,4.42,4.42,0,0,0-1.58-3.61,6.68,6.68,0,0,0-4.4-1.31h-5.94v9.85h6A6.61,6.61,0,0,0,240.61,28.42Z"/><path class="cls-9" d="M253.84,5.12V21.66c0,2.71.59,4.71,1.79,6a6.46,6.46,0,0,0,5,1.93,6.27,6.27,0,0,0,4.89-1.95c1.17-1.3,1.76-3.3,1.76-6V5.12h3.55V21.66q0,5.63-2.79,8.46a11.24,11.24,0,0,1-14.94,0q-2.79-2.84-2.79-8.46V5.12Z"/><path class="cls-9" d="M298.16,26.17a11.5,11.5,0,0,1-5,4.81,16.71,16.71,0,0,1-7.84,1.7h-8.76V5.12h8.76a17.09,17.09,0,0,1,7.84,1.66,11.31,11.31,0,0,1,5,4.77,15.2,15.2,0,0,1,1.68,7.33A15.09,15.09,0,0,1,298.16,26.17Zm-4.81.53q2.85-2.77,2.85-7.82T293.37,11q-2.83-2.79-8.27-2.79h-4.93V29.48h4.93Q290.5,29.48,293.35,26.7Z"/><path class="cls-9" d="M326.11,26.17A11.53,11.53,0,0,1,321.17,31a16.71,16.71,0,0,1-7.84,1.7h-8.76V5.12h8.76a17.09,17.09,0,0,1,7.84,1.66,11.34,11.34,0,0,1,4.94,4.77,15.09,15.09,0,0,1,1.69,7.33A15,15,0,0,1,326.11,26.17Zm-4.8.53q2.85-2.77,2.85-7.82T321.32,11q-2.83-2.79-8.26-2.79h-4.93V29.48h4.93Q318.44,29.48,321.31,26.7Z"/><path class="cls-9" d="M350,5.12l-9,17.12V32.68h-3.6V22.24L328.3,5.12h4.14l6.77,13.33,6.72-13.33Z"/><path class="cls-10" d="M98.47,39.42V46.5a3.11,3.11,0,0,0,.63,2.13,2.62,2.62,0,0,0,3.59,0,3.11,3.11,0,0,0,.63-2.13V39.42h2.39V46.5a6,6,0,0,1-.62,2.83,4,4,0,0,1-1.73,1.72,5.4,5.4,0,0,1-2.51.57,4.7,4.7,0,0,1-3.47-1.3,5.17,5.17,0,0,1-1.3-3.82V39.42Z"/><path class="cls-10" d="M118.33,51.5h-2.42l-5.4-8.22V51.5h-2.42V39.42h2.42l5.4,8.28V39.42h2.42Z"/><path class="cls-10" d="M123.2,39.42V51.5h-2.41V39.42Z"/><path class="cls-10" d="M134.59,53.71l-1.88-2.26a6.46,6.46,0,0,1-1.51.17,6,6,0,0,1-3.07-.79A5.63,5.63,0,0,1,126,48.62a6.78,6.78,0,0,1,0-6.39,5.73,5.73,0,0,1,2.17-2.2,6.38,6.38,0,0,1,6.15,0,5.8,5.8,0,0,1,2.17,2.2,6.4,6.4,0,0,1,.8,3.19,6.51,6.51,0,0,1-.69,3,5.75,5.75,0,0,1-1.9,2.16l2.86,3.12Zm-6.51-6.19a3.25,3.25,0,0,0,1.26,1.38,3.55,3.55,0,0,0,1.86.48,3.59,3.59,0,0,0,1.87-.48,3.25,3.25,0,0,0,1.26-1.38,5.1,5.1,0,0,0,0-4.19A3.25,3.25,0,0,0,133.07,42a3.59,3.59,0,0,0-1.87-.48,3.55,3.55,0,0,0-1.86.48,3.25,3.25,0,0,0-1.26,1.38,5.1,5.1,0,0,0,0,4.19Z"/><path class="cls-10" d="M141.4,39.42V46.5a3.11,3.11,0,0,0,.62,2.13,2.27,2.27,0,0,0,1.81.71,2.21,2.21,0,0,0,1.78-.71,3.11,3.11,0,0,0,.63-2.13V39.42h2.39V46.5a5.83,5.83,0,0,1-.62,2.83,4,4,0,0,1-1.73,1.72,5.37,5.37,0,0,1-2.51.57,4.73,4.73,0,0,1-3.47-1.3A5.17,5.17,0,0,1,139,46.5V39.42Z"/><path class="cls-10" d="M153.43,41.33v3.13h4.28v1.85h-4.28v3.25h4.79V51.5H151V39.42h7.2v1.91Z"/><path class="cls-10" d="M172,39.42v1.91h-3.34V51.5H166.2V41.33h-3.32V39.42Z"/><path class="cls-10" d="M181.61,40a5.76,5.76,0,0,1,2.18,2.2,6.86,6.86,0,0,1,0,6.39,5.65,5.65,0,0,1-2.18,2.21,6.36,6.36,0,0,1-6.14,0,5.63,5.63,0,0,1-2.17-2.21,6.78,6.78,0,0,1,0-6.39,5.73,5.73,0,0,1,2.17-2.2,6.36,6.36,0,0,1,6.14,0ZM176.68,42a3.25,3.25,0,0,0-1.26,1.38,5.1,5.1,0,0,0,0,4.19,3.25,3.25,0,0,0,1.26,1.38,3.53,3.53,0,0,0,1.86.48,3.59,3.59,0,0,0,1.87-.48,3.38,3.38,0,0,0,1.26-1.38,5.1,5.1,0,0,0,0-4.19A3.38,3.38,0,0,0,180.41,42a3.59,3.59,0,0,0-1.87-.48A3.53,3.53,0,0,0,176.68,42Z"/><path class="cls-10" d="M188.8,39.42V46.5a3.17,3.17,0,0,0,.62,2.13,2.64,2.64,0,0,0,3.6,0,3.17,3.17,0,0,0,.62-2.13V39.42H196V46.5a5.83,5.83,0,0,1-.63,2.83,3.94,3.94,0,0,1-1.73,1.72,5.35,5.35,0,0,1-2.5.57,4.74,4.74,0,0,1-3.48-1.3,5.21,5.21,0,0,1-1.3-3.82V39.42Z"/><path class="cls-10" d="M204.72,51.5l-2.83-4.71h-1.06V51.5h-2.41V39.42H203a4.58,4.58,0,0,1,3.21,1,3.52,3.52,0,0,1,1.1,2.71,3.48,3.48,0,0,1-.76,2.29,3.71,3.71,0,0,1-2.2,1.23l3,4.83Zm-3.89-6.37h2q2.07,0,2.07-1.83a1.79,1.79,0,0,0-.51-1.36,2.15,2.15,0,0,0-1.56-.49h-2Z"/><path class="cls-10" d="M211.6,39.42V51.5h-2.42V39.42Z"/><path class="cls-10" d="M221.86,49.9a3.4,3.4,0,0,1-1.37,1.25,4.81,4.81,0,0,1-2.21.47,5.74,5.74,0,0,1-2.29-.44,3.92,3.92,0,0,1-1.62-1.26,3.65,3.65,0,0,1-.69-1.91h2.57a1.89,1.89,0,0,0,.59,1.22,1.81,1.81,0,0,0,1.34.49,1.57,1.57,0,0,0,1.15-.4,1.42,1.42,0,0,0,.41-1,1.32,1.32,0,0,0-.33-.93,2.28,2.28,0,0,0-.82-.59c-.33-.15-.79-.32-1.37-.52a13.1,13.1,0,0,1-1.85-.74,3.45,3.45,0,0,1-1.22-1.07,3,3,0,0,1-.51-1.83,3,3,0,0,1,1.13-2.46,4.57,4.57,0,0,1,3-.9,4.7,4.7,0,0,1,3.06.93,3.46,3.46,0,0,1,1.29,2.46h-2.6a1.82,1.82,0,0,0-.55-1.07,1.68,1.68,0,0,0-1.21-.42,1.61,1.61,0,0,0-1.08.35,1.3,1.3,0,0,0-.41,1,1.21,1.21,0,0,0,.32.88,2.3,2.3,0,0,0,.8.58,12,12,0,0,0,1.33.49,20,20,0,0,1,1.89.77,3.35,3.35,0,0,1,1.24,1.08,3.2,3.2,0,0,1,.51,1.89A3.26,3.26,0,0,1,221.86,49.9Z"/><path class="cls-10" d="M237.32,39.55v12h-2.4V43.16l-3.06,8.34h-2.09l-3.06-8.3v8.3h-2.42v-12h2.93l3.63,9,3.56-9Z"/><path class="cls-10" d="M245.65,41.33v3.13h4.28v1.85h-4.28v3.25h4.79V51.5h-7.2V39.42h7.2v1.91Z"/><path class="cls-10" d="M259.57,51.5l-2.72-4.13-2.41,4.13h-2.76l3.8-6.18-3.9-5.9h2.86l2.67,4,2.38-4h2.75l-3.78,6.07,4,6Z"/><path class="cls-10" d="M266.18,47V51.5h-2.41V39.42h4.4a4.54,4.54,0,0,1,3.22,1,3.65,3.65,0,0,1,1.09,2.79A3.6,3.6,0,0,1,271.36,46a4.58,4.58,0,0,1-3.19,1ZM270,43.23a1.83,1.83,0,0,0-.49-1.38,2.32,2.32,0,0,0-1.63-.48h-1.73v3.71h1.73C269.32,45.08,270,44.46,270,43.23Z"/><path class="cls-10" d="M276.41,41.33v3.13h4.28v1.85h-4.28v3.25h4.8V51.5H274V39.42h7.21v1.91Z"/><path class="cls-10" d="M289.56,51.5l-2.82-4.71h-1.06V51.5h-2.42V39.42h4.61a4.58,4.58,0,0,1,3.21,1,3.56,3.56,0,0,1,1.1,2.71,3.48,3.48,0,0,1-.76,2.29,3.71,3.71,0,0,1-2.2,1.23l3,4.83Zm-3.88-6.37h2q2.07,0,2.07-1.83a1.82,1.82,0,0,0-.5-1.36,2.17,2.17,0,0,0-1.57-.49h-2Z"/><path class="cls-10" d="M296.44,39.42V51.5H294V39.42Z"/><path class="cls-10" d="M301.32,41.33v3.13h4.28v1.85h-4.28v3.25h4.79V51.5h-7.2V39.42h7.2v1.91Z"/><path class="cls-10" d="M318.41,51.5H316l-5.41-8.22V51.5h-2.41V39.42h2.41L316,47.7V39.42h2.42Z"/><path class="cls-10" d="M330,40.46a5.52,5.52,0,0,1,2,3.17h-2.53a3.28,3.28,0,0,0-1.22-1.54,3.46,3.46,0,0,0-2-.57,3.13,3.13,0,0,0-2.92,1.85,5.25,5.25,0,0,0,0,4.16,3.13,3.13,0,0,0,2.92,1.85,3.46,3.46,0,0,0,2-.57,3.33,3.33,0,0,0,1.22-1.54h2.53a5.52,5.52,0,0,1-2,3.17,6.53,6.53,0,0,1-6.81.38,5.26,5.26,0,0,1-2-2.18,7.33,7.33,0,0,1,0-6.38,5.33,5.33,0,0,1,2-2.19,6,6,0,0,1,3.07-.77A5.91,5.91,0,0,1,330,40.46Z"/><path class="cls-10" d="M336.23,41.33v3.13h4.27v1.85h-4.27v3.25H341V51.5h-7.21V39.42H341v1.91Z"/></g></g></svg>